<svg width="106" height="137" viewBox="0 0 106 137" fill="none" xmlns="http://www.w3.org/2000/svg">
<path d="M2.83898 108.635C3.10417 107.729 3.64561 107.276 4.46329 107.276C4.64009 107.276 4.76163 107.287 4.82793 107.309C5.66771 106.934 6.54064 106.635 7.44672 106.414C8.35279 106.171 9.28097 106.05 10.2313 106.05C10.8721 106.05 11.4909 106.116 12.0876 106.249C12.6843 106.359 13.2699 106.58 13.8445 106.912V106.878C14.4633 107.188 15.0158 107.586 15.502 108.072C15.9882 108.558 16.4081 109.099 16.7616 109.696C17.1152 110.293 17.3804 110.923 17.5572 111.586C17.7561 112.249 17.8556 112.912 17.8556 113.575C17.8556 114.878 17.502 116.072 16.7948 117.155C16.0655 118.282 15.1594 119.188 14.0766 119.873C13.0158 120.536 11.7672 120.923 10.3307 121.033C10.0655 121.055 9.78926 121.077 9.50196 121.099C9.23677 121.099 8.98263 121.099 8.73953 121.099C8.27544 121.099 7.82241 121.088 7.38042 121.066C6.93843 121.022 6.51854 120.978 6.12075 120.934C6.12075 121.773 6.12075 122.691 6.12075 123.685C6.12075 124.68 6.1318 125.575 6.1539 126.37C6.1318 126.945 5.94395 127.365 5.59036 127.63C5.25887 127.895 4.89423 128.028 4.49644 128.028C4.12075 128.028 3.76716 127.895 3.43567 127.63C3.12627 127.387 2.93843 127.011 2.87213 126.503V120.204L2.80583 120.171C2.07655 119.751 1.71191 119.254 1.71191 118.68C1.71191 118.414 1.80031 118.16 1.9771 117.917C2.1539 117.674 2.44119 117.497 2.83898 117.387V108.635ZM12.2865 109.497C11.6456 109.144 10.9495 108.967 10.1981 108.967C9.49091 108.967 8.78373 109.077 8.07655 109.298C7.39147 109.497 6.73953 109.751 6.12075 110.061V117.983C6.96053 118.16 7.78926 118.249 8.60694 118.249C9.46881 118.249 10.3197 118.127 11.1594 117.884C12.0213 117.619 12.7285 117.199 13.281 116.624C13.723 116.182 14.0324 115.685 14.2092 115.133C14.4081 114.58 14.5075 114.017 14.5075 113.442C14.5075 112.602 14.3197 111.84 13.944 111.155C13.5904 110.448 13.0379 109.895 12.2865 109.497ZM31.4795 125.442C31.6121 125.773 31.6342 126.094 31.5458 126.403C31.4795 126.691 31.3248 126.923 31.0817 127.099C30.8607 127.298 30.5734 127.409 30.2199 127.431C29.8663 127.475 29.4906 127.398 29.0928 127.199C28.916 127.022 28.7392 126.845 28.5624 126.669C28.4077 126.47 28.2751 126.282 28.1646 126.105C27.369 126.702 26.6176 127.077 25.9105 127.232C25.2254 127.409 24.474 127.497 23.6563 127.497C23.0596 127.497 22.474 127.431 21.8994 127.298C21.3469 127.188 20.7834 126.945 20.2088 126.569C19.369 125.972 18.7723 125.265 18.4187 124.448C18.0652 123.63 17.8884 122.768 17.8884 121.862C17.8884 120.934 18.021 120.061 18.2861 119.243C18.5734 118.403 18.9602 117.63 19.4464 116.923C19.9326 116.193 20.485 115.53 21.1038 114.934C21.7447 114.337 22.4298 113.807 23.1591 113.343C23.3138 113.254 23.5237 113.155 23.7889 113.044C24.0762 112.934 24.3966 112.834 24.7502 112.746C25.1038 112.635 25.4685 112.558 25.8442 112.514C26.2199 112.448 26.5845 112.414 26.9381 112.414C27.6232 112.414 28.2309 112.503 28.7613 112.68C29.3138 112.834 29.7116 113.232 29.9547 113.873C29.9547 114.536 29.9547 115.088 29.9547 115.53C29.9547 115.972 29.9436 116.348 29.9215 116.657C29.9215 116.945 29.9215 117.188 29.9215 117.387C29.9215 117.586 29.9215 117.773 29.9215 117.95C29.9215 118.724 29.9436 119.53 29.9878 120.37C30.032 121.188 30.1094 121.994 30.2199 122.79C30.264 123.033 30.3635 123.32 30.5182 123.652C30.695 123.983 30.8718 124.282 31.0486 124.547H31.0154C31.1701 124.79 31.2917 124.989 31.3801 125.144C31.4906 125.298 31.5237 125.398 31.4795 125.442ZM27.0044 123.088C26.8276 122.315 26.7171 121.519 26.6729 120.702C26.6287 119.862 26.6066 119.033 26.6066 118.215C26.6066 117.641 26.6176 117.122 26.6397 116.657C26.6618 116.193 26.6729 115.74 26.6729 115.298C26.2972 115.343 25.9105 115.442 25.5127 115.597C25.137 115.751 24.8718 115.862 24.7171 115.928C24.1204 116.193 23.579 116.569 23.0928 117.055C22.6287 117.541 22.2419 118.083 21.9326 118.68C21.6232 119.276 21.3911 119.906 21.2364 120.569C21.1038 121.21 21.0928 121.84 21.2033 122.459C21.2696 122.945 21.4353 123.354 21.7005 123.685C21.9878 123.994 22.3193 124.238 22.695 124.414C23.0707 124.569 23.4685 124.646 23.8884 124.646C24.3303 124.646 24.7502 124.58 25.148 124.448C25.6342 124.16 26.253 123.707 27.0044 123.088ZM44.8414 112.878C45.1729 112.26 45.6812 111.95 46.3663 111.95C46.8083 111.95 47.1729 112.105 47.4602 112.414C47.7696 112.724 47.9243 113.155 47.9243 113.707C47.5707 115.077 47.1287 116.436 46.5983 117.785C46.09 119.11 45.5155 120.425 44.8746 121.729C44.2558 123.011 43.5928 124.282 42.8856 125.541C42.2005 126.801 41.5044 128.05 40.7972 129.287C40.4436 129.906 40.09 130.514 39.7364 131.11C39.405 131.707 39.0624 132.326 38.7088 132.967C38.4657 133.276 38.2005 133.497 37.9132 133.63C37.648 133.762 37.3939 133.829 37.1508 133.829C36.7309 133.829 36.3773 133.707 36.09 133.464C35.8027 133.221 35.6591 132.845 35.6591 132.337C35.6591 132.271 35.6591 132.193 35.6591 132.105C35.6591 132.039 35.6701 131.961 35.6922 131.873C36.0679 131.166 36.4547 130.47 36.8525 129.785C37.2724 129.099 37.6701 128.414 38.0458 127.729L40.0679 124.116C39.184 123.409 38.3994 122.691 37.7143 121.961C37.0293 121.232 36.4105 120.47 35.858 119.674C35.3276 118.856 34.8525 117.983 34.4326 117.055C34.0348 116.105 33.6812 115.077 33.3718 113.972C33.3718 112.713 33.8911 112.083 34.9298 112.083C35.2834 112.083 35.6038 112.182 35.8911 112.381C36.2005 112.58 36.4215 112.901 36.5541 113.343C36.9961 115.088 37.637 116.591 38.4768 117.851C39.3166 119.11 40.3331 120.271 41.5265 121.331C42.2337 119.961 42.8525 118.613 43.3829 117.287C43.9132 115.939 44.3884 114.47 44.8083 112.878H44.8414ZM63.4779 107.674C63.5884 107.188 63.7873 106.834 64.0746 106.613C64.384 106.37 64.7265 106.249 65.1022 106.249C65.4558 106.249 65.7873 106.359 66.0967 106.58C66.4282 106.801 66.6492 107.133 66.7597 107.575C66.7597 110.691 66.7376 113.729 66.6934 116.691C66.6492 119.63 66.5387 122.669 66.3619 125.807C66.3398 125.917 66.3287 126.006 66.3287 126.072C66.3287 126.116 66.3287 126.16 66.3287 126.204C66.174 126.624 65.953 126.934 65.6657 127.133C65.3784 127.354 65.0801 127.464 64.7707 127.464C64.2624 127.464 63.7762 127.232 63.3121 126.768L63.0801 126.37C62.3287 125.11 61.5552 123.895 60.7597 122.724C59.9862 121.552 59.1795 120.414 58.3398 119.309C57.5221 118.204 56.6823 117.11 55.8204 116.028C54.9586 114.923 54.0856 113.818 53.2016 112.713V118.282C53.2016 119.431 53.2016 120.624 53.2016 121.862C53.2237 123.099 53.2348 124.448 53.2348 125.906C53.2127 126.481 53.0249 126.901 52.6713 127.166C52.3398 127.431 51.9862 127.564 51.6105 127.564C51.2127 127.564 50.8481 127.431 50.5166 127.166C50.2072 126.923 50.0193 126.547 49.953 126.039C49.953 124.58 49.942 123.11 49.9199 121.63C49.9199 120.127 49.9199 118.613 49.9199 117.088V108.105C50.0304 107.663 50.2293 107.331 50.5166 107.11C50.8039 106.867 51.1464 106.746 51.5442 106.746C51.8757 106.746 52.2956 106.912 52.8039 107.243L53.8315 108.436C55.5331 110.47 57.1685 112.47 58.7376 114.436C60.3066 116.381 61.8204 118.459 63.279 120.669C63.3453 118.436 63.3895 116.293 63.4116 114.238C63.4558 112.16 63.4779 109.983 63.4779 107.707V107.674ZM76.3983 112.547C77.3265 112.547 78.1442 112.746 78.8513 113.144C79.5806 113.541 80.1884 114.072 80.6745 114.735C81.1828 115.376 81.5585 116.116 81.8016 116.956C82.0668 117.773 82.1994 118.613 82.1994 119.475C82.1994 119.851 82.1773 120.204 82.1331 120.536C82.0889 120.845 82.0337 121.166 81.9674 121.497C81.7243 122.403 81.3596 123.254 80.8734 124.05C80.4093 124.845 79.8569 125.541 79.216 126.138C78.5751 126.713 77.8569 127.166 77.0613 127.497C76.2878 127.829 75.4701 127.994 74.6082 127.994C73.7022 127.994 72.8734 127.796 72.1221 127.398C71.3928 127 70.774 126.492 70.2657 125.873C69.7574 125.232 69.3596 124.525 69.0723 123.751C68.8071 122.956 68.6745 122.16 68.6745 121.365C68.6745 120.26 68.8734 119.188 69.2712 118.149C69.6911 117.088 70.2436 116.149 70.9287 115.331C71.6359 114.492 72.4535 113.818 73.3817 113.309C74.332 112.801 75.3375 112.547 76.3983 112.547ZM72.1221 119.674C71.9895 120.182 71.9232 120.746 71.9232 121.365C71.9232 121.983 72.0116 122.569 72.1884 123.122C72.3651 123.652 72.6524 124.105 73.0502 124.481C73.4701 124.856 74.0226 125.044 74.7077 125.044C75.3707 125.044 75.9563 124.856 76.4646 124.481C76.995 124.083 77.437 123.608 77.7906 123.055C78.1663 122.481 78.4535 121.873 78.6524 121.232C78.8513 120.569 78.9508 119.972 78.9508 119.442C78.9508 118.956 78.8955 118.481 78.785 118.017C78.6745 117.53 78.4977 117.099 78.2547 116.724C78.0337 116.348 77.7574 116.05 77.4259 115.829C77.0944 115.586 76.7187 115.464 76.2988 115.464C75.7685 115.464 75.2712 115.608 74.8071 115.895C74.343 116.16 73.9232 116.503 73.5475 116.923C73.1939 117.32 72.8955 117.773 72.6524 118.282C72.4093 118.768 72.2326 119.232 72.1221 119.674ZM101.463 113.144C101.639 112.834 101.871 112.613 102.159 112.481C102.468 112.326 102.755 112.249 103.021 112.249C103.463 112.249 103.838 112.403 104.148 112.713C104.479 113 104.623 113.431 104.579 114.006L104.081 115.663C103.529 117.497 102.954 119.32 102.358 121.133C101.761 122.923 101.032 124.724 100.17 126.536C99.772 127 99.3079 127.232 98.7775 127.232C98.2913 127.232 97.8272 127.011 97.3852 126.569C96.7885 125.354 96.236 124.138 95.7278 122.923C95.2195 121.685 94.7112 120.436 94.2029 119.177C94.1587 119.088 94.1255 119.022 94.1035 118.978C94.0814 118.934 94.0593 118.89 94.0372 118.845C94.0151 118.801 93.993 118.779 93.9709 118.779C93.7057 119.486 93.4405 120.171 93.1753 120.834C92.9101 121.475 92.6449 122.149 92.3797 122.856C92.1587 123.431 91.9267 124.039 91.6836 124.68C91.4405 125.32 91.1863 125.961 90.9211 126.602C90.5454 127.044 90.0924 127.265 89.562 127.265C88.8769 127.265 88.3576 126.934 88.004 126.271C87.5399 125.144 87.1311 124.061 86.7775 123.022C86.446 121.983 86.1256 120.934 85.8162 119.873C85.4405 118.613 85.1311 117.53 84.888 116.624C84.6449 115.718 84.457 114.867 84.3244 114.072C84.236 113.475 84.3686 113.011 84.7222 112.68C85.0758 112.348 85.4736 112.182 85.9156 112.182C86.2471 112.182 86.5675 112.282 86.8769 112.481C87.1863 112.68 87.4073 113 87.5399 113.442C87.783 114.834 88.0703 116.204 88.4018 117.552C88.7333 118.878 89.12 120.182 89.562 121.464C89.7388 121.022 89.9046 120.591 90.0593 120.171C90.236 119.729 90.4128 119.287 90.5896 118.845L92.6449 113.707C92.8217 113.42 93.0316 113.21 93.2747 113.077C93.5399 112.945 93.8162 112.878 94.1035 112.878C94.4791 112.878 94.8106 112.989 95.0979 113.21C95.4073 113.409 95.6173 113.718 95.7278 114.138C96.1255 115.53 96.5896 116.856 97.12 118.116C97.6725 119.354 98.2029 120.602 98.7112 121.862C99.0869 120.823 99.4626 119.696 99.8383 118.481C100.214 117.243 100.59 116.006 100.965 114.768L101.429 113.177L101.463 113.144Z" fill="white"/>
<path d="M68 0H38C24.1929 0 13 11.1929 13 25V55C13 68.8071 24.1929 80 38 80H68C81.8071 80 93 68.8071 93 55V25C93 11.1929 81.8071 0 68 0Z" fill="white"/>
<path d="M49.7514 23.6066L37.5572 53.1133C37.0434 54.3564 37.2694 55.7608 38.1467 56.7783C39.0242 57.7958 40.3762 58.2213 41.675 57.8888L51.9329 55.2624V42.4034C51.9329 41.8117 52.4107 41.3319 53.0001 41.3319C53.5894 41.3319 54.0673 41.8116 54.0673 42.4034V55.2624L64.3251 57.8888C65.624 58.2213 66.976 57.7958 67.8534 56.7783C68.7325 55.7587 68.9557 54.3542 68.4429 53.1132L56.2487 23.6065C55.6936 22.2631 54.4487 21.4286 53.0001 21.4286C51.5515 21.4286 50.3066 22.2631 49.7514 23.6066Z" fill="#1A87DD"/>
</svg>
