<svg width="13" height="13" viewBox="0 0 13 13" fill="none" xmlns="http://www.w3.org/2000/svg">
<path d="M7.76622 11.8955L12.5192 2.01185C12.7195 1.59547 12.6314 1.12506 12.2894 0.784237C11.9474 0.443414 11.4204 0.300864 10.9142 0.412263L6.91594 1.29199V5.59926C6.91594 5.79746 6.72972 5.95817 6.49998 5.95817C6.27028 5.95817 6.08403 5.79748 6.08403 5.59926V1.29199L2.08579 0.412263C1.57952 0.300864 1.05256 0.44339 0.710584 0.784237C0.36794 1.12575 0.280927 1.59621 0.480796 2.01187L5.23375 11.8955C5.45015 12.3455 5.93534 12.625 6.49998 12.625C7.06463 12.625 7.54985 12.3455 7.76622 11.8955Z" fill="white"/>
</svg>
