<svg width="16" height="16" viewBox="0 0 16 16" fill="none" xmlns="http://www.w3.org/2000/svg">
<path d="M9.65384 15.0471L15.8618 2.13792C16.1234 1.59408 16.0083 0.979671 15.5617 0.534514C15.115 0.0893571 14.4267 -0.0968306 13.7655 0.0486695L8.54327 1.1977V6.82352C8.54327 7.0824 8.30004 7.2923 7.99998 7.2923C7.69996 7.2923 7.45669 7.08243 7.45669 6.82352V1.1977L2.2345 0.0486695C1.57325 -0.0968306 0.884979 0.0893258 0.438313 0.534514C-0.00922203 0.980577 -0.122869 1.59505 0.138183 2.13795L6.34612 15.0472C6.62876 15.6349 7.26249 16 7.99998 16C8.73747 16 9.37123 15.6349 9.65384 15.0471Z" fill="#C0BBBB"/>
</svg>
