<svg width="16" height="16" viewBox="0 0 16 16" fill="none" xmlns="http://www.w3.org/2000/svg">
<path d="M6.34617 0.952876L0.138186 13.8621C-0.123374 14.4059 -0.00831241 15.0203 0.438317 15.4655C0.885019 15.9106 1.57329 16.0968 2.23451 15.9513L7.45673 14.8023V9.17648C7.45673 8.9176 7.69996 8.7077 8.00002 8.7077C8.30004 8.7077 8.54331 8.91757 8.54331 9.17648V14.8023L13.7655 15.9513C14.4268 16.0968 15.115 15.9107 15.5617 15.4655C16.0092 15.0194 16.1229 14.405 15.8618 13.862L9.65388 0.952845C9.37124 0.365094 8.73751 0 8.00002 0C7.26253 0 6.62877 0.365094 6.34617 0.952876Z" fill="#BEBCBC"/>
</svg>
