<svg width="13" height="13" viewBox="0 0 13 13" fill="none" xmlns="http://www.w3.org/2000/svg">
<path d="M5.23378 1.10455L0.480799 10.9882C0.280542 11.4045 0.368636 11.8749 0.710587 12.2158C1.05259 12.5566 1.57955 12.6991 2.08579 12.5877L6.08406 11.708V7.40074C6.08406 7.20254 6.27028 7.04183 6.50002 7.04183C6.72972 7.04183 6.91597 7.20252 6.91597 7.40074V11.708L10.9142 12.5877C11.4205 12.6991 11.9474 12.5566 12.2894 12.2158C12.6321 11.8742 12.7191 11.4038 12.5192 10.9881L7.76625 1.10452C7.54985 0.654525 7.06466 0.375 6.50002 0.375C5.93537 0.375 5.45015 0.654525 5.23378 1.10455Z" fill="#1A1A1A"/>
</svg>
